<?xml version="1.0" encoding="UTF-8"?>
<svg xmlns="http://www.w3.org/2000/svg" xmlns:xlink="http://www.w3.org/1999/xlink" width="64px" height="64px" viewBox="0 0 64 64" version="1.1">
<g id="surface1">
<path style=" stroke:none;fill-rule:nonzero;fill:rgb(94.117647%,39.607843%,16.470588%);fill-opacity:1;" d="M 57 32 C 57 45.808594 45.808594 57 32 57 C 18.191406 57 7 45.808594 7 32 C 7 18.191406 18.191406 7 32 7 C 45.808594 7 57 18.191406 57 32 Z M 57 32 "/>
<path style=" stroke:none;fill-rule:nonzero;fill:rgb(100%,100%,100%);fill-opacity:1;" d="M 20.101562 19.5 L 22.25 43.75 L 31.949219 46.5 L 41.699219 43.75 L 43.898438 19.5 Z M 39.199219 27.398438 L 27.800781 27.398438 L 28.050781 30.449219 L 38.898438 30.449219 L 38.050781 39.648438 L 32 41.300781 L 31.949219 41.300781 L 25.851562 39.601562 L 25.5 34.949219 L 28.449219 34.949219 L 28.648438 37.300781 L 31.949219 38.199219 L 35.25 37.300781 L 35.601562 33.449219 L 25.351562 33.449219 L 24.550781 24.449219 L 39.449219 24.449219 Z M 39.199219 27.398438 "/>
</g>
</svg>
