<?xml version="1.0" encoding="UTF-8"?>
<svg xmlns="http://www.w3.org/2000/svg" xmlns:xlink="http://www.w3.org/1999/xlink" width="64px" height="64px" viewBox="0 0 64 64" version="1.1">
<g id="surface1">
<path style=" stroke:none;fill-rule:nonzero;fill:rgb(94.117647%,85.882353%,30.980392%);fill-opacity:1;" d="M 57 32 C 57 45.808594 45.808594 57 32 57 C 18.191406 57 7 45.808594 7 32 C 7 18.191406 18.191406 7 32 7 C 45.808594 7 57 18.191406 57 32 Z M 57 32 "/>
<path style=" stroke:none;fill-rule:nonzero;fill:rgb(19.607843%,20%,18.823529%);fill-opacity:1;" d="M 24.199219 22.300781 L 28.550781 22.300781 L 28.550781 34.550781 C 28.550781 40.050781 25.898438 42 21.699219 42 C 20.648438 42 19.351562 41.851562 18.5 41.550781 L 19 38 C 19.601562 38.199219 20.398438 38.351562 21.25 38.351562 C 23.101562 38.351562 24.25 37.5 24.25 34.550781 Z M 24.199219 22.300781 "/>
<path style=" stroke:none;fill-rule:nonzero;fill:rgb(19.607843%,20%,18.823529%);fill-opacity:1;" d="M 32.398438 37.199219 C 33.550781 37.800781 35.398438 38.398438 37.25 38.398438 C 39.25 38.398438 40.300781 37.550781 40.300781 36.25 C 40.300781 35.050781 39.398438 34.351562 37.050781 33.550781 C 33.851562 32.398438 31.699219 30.601562 31.699219 27.75 C 31.699219 24.5 34.5 22 39.050781 22 C 41.25 22 42.851562 22.449219 44 23 L 43 26.5 C 42.25 26.148438 40.851562 25.601562 39 25.601562 C 37.101562 25.601562 36.199219 26.5 36.199219 27.449219 C 36.199219 28.699219 37.25 29.25 39.800781 30.199219 C 43.199219 31.449219 44.800781 33.25 44.800781 36 C 44.800781 39.25 42.351562 42 37 42 C 34.800781 42 32.601562 41.398438 31.5 40.800781 Z M 32.398438 37.199219 "/>
</g>
</svg>
